<mxfile host="Electron" modified="2023-12-05T14:01:25.866Z" agent="Mozilla/5.0 (Windows NT 10.0; Win64; x64) AppleWebKit/537.36 (KHTML, like Gecko) draw.io/22.1.2 Chrome/114.0.5735.289 Electron/25.9.4 Safari/537.36" etag="m6Uo0pxRbyOprXYL78Up" version="22.1.2" type="device">
  <diagram name="Page-1" id="5teIPHdFALnYnMfDJU84">
    <mxGraphModel dx="1038" dy="608" grid="1" gridSize="10" guides="1" tooltips="1" connect="1" arrows="1" fold="1" page="1" pageScale="1" pageWidth="827" pageHeight="1169" math="0" shadow="0">
      <root>
        <mxCell id="0" />
        <mxCell id="1" parent="0" />
        <mxCell id="MjdHZGc9FM5pPmdzpKO_-14" style="edgeStyle=orthogonalEdgeStyle;rounded=0;orthogonalLoop=1;jettySize=auto;html=1;exitX=1;exitY=0.5;exitDx=0;exitDy=0;entryX=0;entryY=0.25;entryDx=0;entryDy=0;" edge="1" parent="1" source="MjdHZGc9FM5pPmdzpKO_-10" target="MjdHZGc9FM5pPmdzpKO_-13">
          <mxGeometry relative="1" as="geometry" />
        </mxCell>
        <mxCell id="MjdHZGc9FM5pPmdzpKO_-10" value="orderCreated" style="shape=message;html=1;html=1;outlineConnect=0;labelPosition=center;verticalLabelPosition=bottom;align=center;verticalAlign=top;fontStyle=1;fillColor=#dae8fc;strokeColor=#6c8ebf;" vertex="1" parent="1">
          <mxGeometry x="60" y="80" width="60" height="40" as="geometry" />
        </mxCell>
        <mxCell id="MjdHZGc9FM5pPmdzpKO_-15" style="edgeStyle=orthogonalEdgeStyle;rounded=0;orthogonalLoop=1;jettySize=auto;html=1;exitX=1;exitY=0.5;exitDx=0;exitDy=0;" edge="1" parent="1" source="MjdHZGc9FM5pPmdzpKO_-11" target="MjdHZGc9FM5pPmdzpKO_-13">
          <mxGeometry relative="1" as="geometry" />
        </mxCell>
        <mxCell id="MjdHZGc9FM5pPmdzpKO_-11" value="orderUpdated" style="shape=message;html=1;html=1;outlineConnect=0;labelPosition=center;verticalLabelPosition=bottom;align=center;verticalAlign=top;fontStyle=1;fillColor=#dae8fc;strokeColor=#6c8ebf;" vertex="1" parent="1">
          <mxGeometry x="60" y="160" width="60" height="40" as="geometry" />
        </mxCell>
        <mxCell id="MjdHZGc9FM5pPmdzpKO_-16" style="edgeStyle=orthogonalEdgeStyle;rounded=0;orthogonalLoop=1;jettySize=auto;html=1;exitX=1;exitY=0.5;exitDx=0;exitDy=0;entryX=0;entryY=0.75;entryDx=0;entryDy=0;" edge="1" parent="1" source="MjdHZGc9FM5pPmdzpKO_-12" target="MjdHZGc9FM5pPmdzpKO_-13">
          <mxGeometry relative="1" as="geometry" />
        </mxCell>
        <mxCell id="MjdHZGc9FM5pPmdzpKO_-12" value="orderCompleted" style="shape=message;html=1;html=1;outlineConnect=0;labelPosition=center;verticalLabelPosition=bottom;align=center;verticalAlign=top;fontStyle=1;fillColor=#dae8fc;strokeColor=#6c8ebf;" vertex="1" parent="1">
          <mxGeometry x="60" y="240" width="60" height="40" as="geometry" />
        </mxCell>
        <mxCell id="MjdHZGc9FM5pPmdzpKO_-13" value="OrderStream" style="rounded=1;whiteSpace=wrap;html=1;fillColor=#ffe6cc;strokeColor=#d79b00;sketch=1;curveFitting=1;jiggle=2;fontStyle=1" vertex="1" parent="1">
          <mxGeometry x="180" y="160" width="120" height="40" as="geometry" />
        </mxCell>
        <mxCell id="MjdHZGc9FM5pPmdzpKO_-33" style="edgeStyle=orthogonalEdgeStyle;rounded=0;orthogonalLoop=1;jettySize=auto;html=1;exitX=1;exitY=0.5;exitDx=0;exitDy=0;entryX=0;entryY=0.5;entryDx=0;entryDy=0;" edge="1" parent="1" source="MjdHZGc9FM5pPmdzpKO_-25" target="MjdHZGc9FM5pPmdzpKO_-30">
          <mxGeometry relative="1" as="geometry" />
        </mxCell>
        <mxCell id="MjdHZGc9FM5pPmdzpKO_-25" value="orderCreated" style="shape=message;html=1;html=1;outlineConnect=0;labelPosition=center;verticalLabelPosition=bottom;align=center;verticalAlign=top;fontStyle=1;fillColor=#dae8fc;strokeColor=#6c8ebf;" vertex="1" parent="1">
          <mxGeometry x="370" y="80" width="60" height="40" as="geometry" />
        </mxCell>
        <mxCell id="MjdHZGc9FM5pPmdzpKO_-34" style="edgeStyle=orthogonalEdgeStyle;rounded=0;orthogonalLoop=1;jettySize=auto;html=1;exitX=1;exitY=0.5;exitDx=0;exitDy=0;entryX=0;entryY=0.5;entryDx=0;entryDy=0;" edge="1" parent="1" source="MjdHZGc9FM5pPmdzpKO_-27" target="MjdHZGc9FM5pPmdzpKO_-31">
          <mxGeometry relative="1" as="geometry" />
        </mxCell>
        <mxCell id="MjdHZGc9FM5pPmdzpKO_-27" value="orderUpdated" style="shape=message;html=1;html=1;outlineConnect=0;labelPosition=center;verticalLabelPosition=bottom;align=center;verticalAlign=top;fontStyle=1;fillColor=#dae8fc;strokeColor=#6c8ebf;" vertex="1" parent="1">
          <mxGeometry x="370" y="160" width="60" height="40" as="geometry" />
        </mxCell>
        <mxCell id="MjdHZGc9FM5pPmdzpKO_-35" style="edgeStyle=orthogonalEdgeStyle;rounded=0;orthogonalLoop=1;jettySize=auto;html=1;exitX=1;exitY=0.5;exitDx=0;exitDy=0;entryX=0;entryY=0.5;entryDx=0;entryDy=0;" edge="1" parent="1" source="MjdHZGc9FM5pPmdzpKO_-29" target="MjdHZGc9FM5pPmdzpKO_-32">
          <mxGeometry relative="1" as="geometry" />
        </mxCell>
        <mxCell id="MjdHZGc9FM5pPmdzpKO_-29" value="orderCompleted" style="shape=message;html=1;html=1;outlineConnect=0;labelPosition=center;verticalLabelPosition=bottom;align=center;verticalAlign=top;fontStyle=1;fillColor=#dae8fc;strokeColor=#6c8ebf;" vertex="1" parent="1">
          <mxGeometry x="370" y="240" width="60" height="40" as="geometry" />
        </mxCell>
        <mxCell id="MjdHZGc9FM5pPmdzpKO_-30" value="OrderCreatedStream" style="rounded=1;whiteSpace=wrap;html=1;fillColor=#ffe6cc;strokeColor=#d79b00;sketch=1;curveFitting=1;jiggle=2;fontStyle=1" vertex="1" parent="1">
          <mxGeometry x="500" y="80" width="140" height="40" as="geometry" />
        </mxCell>
        <mxCell id="MjdHZGc9FM5pPmdzpKO_-31" value="OrderUpdatedStream" style="rounded=1;whiteSpace=wrap;html=1;fillColor=#ffe6cc;strokeColor=#d79b00;sketch=1;curveFitting=1;jiggle=2;fontStyle=1" vertex="1" parent="1">
          <mxGeometry x="500" y="160" width="140" height="40" as="geometry" />
        </mxCell>
        <mxCell id="MjdHZGc9FM5pPmdzpKO_-32" value="OrderCompletedStream" style="rounded=1;whiteSpace=wrap;html=1;fillColor=#ffe6cc;strokeColor=#d79b00;sketch=1;curveFitting=1;jiggle=2;fontStyle=1" vertex="1" parent="1">
          <mxGeometry x="500" y="240" width="140" height="40" as="geometry" />
        </mxCell>
      </root>
    </mxGraphModel>
  </diagram>
</mxfile>
